<svg width="23" height="27" viewBox="0 0 23 27" fill="none" xmlns="http://www.w3.org/2000/svg">
<path d="M2.56582e-07 3.48221V25.6424C-0.000121505 25.7849 0.0430953 25.925 0.125397 26.0489C0.207699 26.1728 0.326248 26.2762 0.469376 26.3489C0.612503 26.4216 0.775275 26.4612 0.941668 26.4636C1.10806 26.4661 1.27234 26.4315 1.41833 26.363L11.5 21.6519L21.5817 26.363C21.7277 26.4315 21.8919 26.4661 22.0583 26.4636C22.2247 26.4612 22.3875 26.4216 22.5306 26.3489C22.6738 26.2762 22.7923 26.1728 22.8746 26.0489C22.9569 25.925 23.0001 25.7849 23 25.6424V3.48221C23 2.61151 22.5961 1.77647 21.8772 1.16079C21.1584 0.545105 20.1833 0.199219 19.1667 0.199219L3.83333 0.199219C2.81667 0.199219 1.84165 0.545105 1.12276 1.16079C0.403868 1.77647 2.56582e-07 2.61151 2.56582e-07 3.48221Z" fill="#CCC8BC"/>
</svg>
